HIERARCHY
ROOT joint_Root
{
	OFFSET 0.0 0.0 0.0
	CHANNELS 6 Xposition Yposition Zposition Zrotation Xrotation Yrotation 
	JOINT Hips
	{
		OFFSET 4.5925 91.4895 -427.239
		CHANNELS 6 Xposition Yposition Zposition Zrotation Xrotation Yrotation 
		JOINT Spine
		{
			OFFSET 15.7357 0.0 0.0
			CHANNELS 6 Xposition Yposition Zposition Zrotation Xrotation Yrotation 
			JOINT Chest
			{
				OFFSET 8.98455 -0.406207 0.0
				CHANNELS 6 Xposition Yposition Zposition Zrotation Xrotation Yrotation 
				JOINT Neck
				{
					OFFSET 16.3773 0.0 0.0
					CHANNELS 6 Xposition Yposition Zposition Zrotation Xrotation Yrotation 
					JOINT Head
					{
						OFFSET 6.45672 0.0 0.0
						CHANNELS 6 Xposition Yposition Zposition Zrotation Xrotation Yrotation 
						End Site
						{
							OFFSET 0.0 0.0 0.0
						}
					}
				}
				JOINT Shoulder_L
				{
					OFFSET 12.9942 -0.242716 4.98039
					CHANNELS 6 Xposition Yposition Zposition Zrotation Xrotation Yrotation 
					JOINT UpperArm_L
					{
						OFFSET 5.34809 0.0 0.0
						CHANNELS 6 Xposition Yposition Zposition Zrotation Xrotation Yrotation 
						JOINT LowerArm_L
						{
							OFFSET 24.3286 1.87007e-05 0.0
							CHANNELS 6 Xposition Yposition Zposition Zrotation Xrotation Yrotation 
							JOINT Hand_L
							{
								OFFSET 22.2916 0.0 0.0
								CHANNELS 6 Xposition Yposition Zposition Zrotation Xrotation Yrotation 
								End Site
								{
									OFFSET 0.0 0.0 0.0
								}
							}
						}
					}
				}
				JOINT Shoulder_R
				{
					OFFSET 12.9945 -0.242716 -4.98039
					CHANNELS 6 Xposition Yposition Zposition Zrotation Xrotation Yrotation 
					JOINT UpperArm_R
					{
						OFFSET -5.34813 0.0 0.0
						CHANNELS 6 Xposition Yposition Zposition Zrotation Xrotation Yrotation 
						JOINT LowerArm_R
						{
							OFFSET -24.3289 0.000322201 0.0
							CHANNELS 6 Xposition Yposition Zposition Zrotation Xrotation Yrotation 
							JOINT Hand_R
							{
								OFFSET -22.2915 -0.000108084 0.0
								CHANNELS 6 Xposition Yposition Zposition Zrotation Xrotation Yrotation 
								End Site
								{
									OFFSET 0.0 0.0 0.0
								}
							}
						}
					}
				}
			}
		}
		JOINT UpperLeg_L
		{
			OFFSET -2.19248 -6.46944 0.0
			CHANNELS 6 Xposition Yposition Zposition Zrotation Xrotation Yrotation 
			JOINT LowerLeg_L
			{
				OFFSET 39.0811 0.0 -1.23785e-05
				CHANNELS 6 Xposition Yposition Zposition Zrotation Xrotation Yrotation 
				JOINT Foot_L
				{
					OFFSET 40.9854 0.0 -1.26872e-05
					CHANNELS 6 Xposition Yposition Zposition Zrotation Xrotation Yrotation 
					JOINT Toes_L
					{
						OFFSET 11.7543 0.0 0.0
						CHANNELS 6 Xposition Yposition Zposition Zrotation Xrotation Yrotation 
						End Site
						{
							OFFSET 0.0 0.0 0.0
						}
					}
				}
			}
		}
		JOINT UpperLeg_R
		{
			OFFSET -2.19251 6.46944 0.0
			CHANNELS 6 Xposition Yposition Zposition Zrotation Xrotation Yrotation 
			JOINT LowerLeg_R
			{
				OFFSET -39.0811 -0.00228153 -0.0401928
				CHANNELS 6 Xposition Yposition Zposition Zrotation Xrotation Yrotation 
				JOINT Foot_R
				{
					OFFSET -40.9854 0.0 0.0
					CHANNELS 6 Xposition Yposition Zposition Zrotation Xrotation Yrotation 
					JOINT Toes_R
					{
						OFFSET -11.7543 0.0 0.0
						CHANNELS 6 Xposition Yposition Zposition Zrotation Xrotation Yrotation 
						End Site
						{
							OFFSET 0.0 0.0 0.0
						}
					}
				}
			}
		}
	}
}
MOTION
Frames:	5
Frame Time:	0.0333333
0.000000 0.000000 0.000000 0.000000 0.000000 -0.000000 -1.255370 96.560700 74.779300 -89.967100 -15.077400 165.653000 15.735700 0.000005 -0.000001 31.293400 79.458600 -28.498900 8.984550 -0.406207 -0.000000 3.797080 -18.091100 6.223680 16.377300 -0.000001 -0.000001 -1.243840 -1.215530 1.474940 6.456720 -0.000001 -0.000000 -3.587360 9.051840 0.407345 12.994200 -0.242716 4.980390 -87.579300 -10.576500 -77.030100 5.348090 -0.000007 -0.000001 -60.537900 16.331000 -41.974200 24.328600 0.000019 0.000005 3.788960 -2.857830 -126.974000 22.291600 -0.000001 0.000005 -2.084290 5.408010 -3.199740 12.994500 -0.242716 -4.980390 93.549300 -8.681930 -67.661800 -5.348130 -0.000001 -0.000004 -69.231800 27.610800 43.540500 -24.328900 0.000322 -0.000009 -5.753870 -2.993850 -62.596700 -22.291500 -0.000108 -0.000004 3.632190 5.595530 -11.078000 -2.192480 -6.469440 -0.000000 -162.554000 -20.321400 10.323400 39.081100 -0.000007 -0.000012 0.112060 -0.297600 20.633800 40.985400 -0.000006 -0.000013 -6.226870 8.691660 -30.290900 11.754300 -0.000000 0.000003 -0.003803 -0.049379 -18.585300 -2.192510 6.469440 -0.000001 -177.093000 10.935200 131.929000 -39.081100 -0.002282 -0.040193 0.085614 -0.084527 44.251800 -40.985400 0.000008 0.000006 2.956940 6.166630 -56.650800 -11.754300 -0.000006 -0.000006 -0.013767 -0.129909 -21.871600
0.000000 0.000000 0.000000 0.000000 0.000000 -0.000000 -1.632450 96.383700 63.087300 -93.100500 -16.032200 167.278000 15.735700 0.000005 -0.000001 30.065500 78.814000 -28.182500 8.984550 -0.406207 -0.000000 3.957980 -19.399600 4.466480 16.377300 -0.000001 -0.000001 -0.933087 -1.737890 2.349180 6.456720 -0.000001 -0.000000 -2.969400 9.638840 0.566739 12.994200 -0.242716 4.980390 -87.416500 -11.202300 -76.924400 5.348090 -0.000007 -0.000001 -61.058700 20.301500 -37.995400 24.328600 0.000019 0.000005 3.976870 -3.063580 -127.551000 22.291600 -0.000001 0.000005 -2.290290 5.410560 -3.283590 12.994500 -0.242716 -4.980390 93.757000 -8.893320 -66.985900 -5.348130 -0.000001 -0.000004 -69.324700 26.255000 44.898600 -24.328900 0.000322 -0.000009 -6.563420 -2.923790 -66.085000 -22.291500 -0.000108 -0.000004 4.193340 5.601000 -11.400500 -2.192480 -6.469440 -0.000000 -161.243000 -17.485700 14.185200 39.081100 -0.000007 -0.000012 0.210842 -0.377412 29.190300 40.985400 -0.000006 -0.000013 -2.772860 3.571340 -30.299000 11.754300 -0.000000 0.000003 -0.002746 -0.037704 -18.110100 -2.192510 6.469440 -0.000001 -179.524000 16.146600 141.587000 -39.081100 -0.002282 -0.040193 0.000388 0.007831 20.525400 -40.985400 0.000008 0.000006 -1.252020 13.595900 -60.915900 -11.754300 -0.000006 -0.000006 -0.016170 -0.145062 -22.493500
0.000000 0.000000 0.000000 0.000000 0.000000 -0.000000 -1.771290 95.330000 51.219700 -95.500200 -16.563400 168.457000 15.735700 0.000005 -0.000001 30.389800 78.852400 -29.146100 8.984550 -0.406207 -0.000000 3.910630 -19.248600 3.165990 16.377300 -0.000001 -0.000001 -0.607259 -2.450360 2.414300 6.456720 -0.000001 -0.000000 -3.006070 8.779600 1.080780 12.994200 -0.242716 4.980390 -87.707100 -10.466900 -77.570500 5.348090 -0.000007 -0.000001 -62.813700 25.291900 -32.042100 24.328600 0.000019 0.000005 4.125710 -2.891300 -124.968000 22.291600 -0.000001 0.000005 -1.818550 5.409600 -3.251130 12.994500 -0.242716 -4.980390 92.959200 -6.881750 -66.663100 -5.348130 -0.000001 -0.000004 -68.157400 24.653300 43.122100 -24.328900 0.000322 -0.000009 -7.129280 -3.087470 -66.697500 -22.291500 -0.000108 -0.000004 5.884740 5.611570 -12.050900 -2.192480 -6.469440 -0.000000 -164.820000 -8.274940 16.039900 39.081100 -0.000007 -0.000012 0.324910 -0.405255 38.721000 40.985400 -0.000006 -0.000013 2.503090 -2.864020 -28.129100 11.754300 -0.000000 0.000003 -0.001191 -0.018093 -17.312500 -2.192510 6.469440 -0.000001 -178.958000 22.744700 146.067000 -39.081100 -0.002282 -0.040193 -0.008983 0.080313 8.723960 -40.985400 0.000008 0.000006 -0.397055 18.351700 -67.930500 -11.754300 -0.000006 -0.000006 -0.019105 -0.162280 -23.201600
0.000000 0.000000 0.000000 0.000000 0.000000 -0.000000 -1.681730 93.380300 39.570100 -95.638100 -15.327300 169.501000 15.735700 0.000005 -0.000001 34.371100 79.699700 -33.060100 8.984550 -0.406207 -0.000000 4.215760 -17.019400 3.265080 16.377300 -0.000001 -0.000001 -0.922507 -2.879510 1.982390 6.456720 -0.000001 -0.000000 -3.600920 7.143720 1.352030 12.994200 -0.242716 4.980390 -88.198100 -8.202830 -77.565100 5.348090 -0.000007 -0.000001 -64.343900 30.063300 -25.651500 24.328600 0.000019 0.000005 5.117130 -2.843130 -118.986000 22.291600 -0.000001 0.000005 0.331973 5.419490 -3.578110 12.994500 -0.242716 -4.980390 91.370000 -3.296240 -67.422000 -5.348130 -0.000001 -0.000004 -66.248000 22.950000 38.376000 -24.328900 0.000322 -0.000009 -6.281960 -2.848160 -65.701300 -22.291500 -0.000108 -0.000004 8.726810 5.628330 -13.201000 -2.192480 -6.469440 -0.000000 -168.440000 -1.722670 15.014400 39.081100 -0.000007 -0.000012 0.467842 -0.351360 53.093000 40.985400 -0.000006 -0.000013 -0.204731 -0.945383 -22.622700 11.754300 -0.000000 0.000003 -0.000356 -0.005800 -16.813000 -2.192510 6.469440 -0.000001 -174.079000 30.379200 144.495000 -39.081100 -0.002282 -0.040193 -0.028675 0.157400 11.495900 -40.985400 0.000008 0.000006 -9.219200 17.357500 -68.499400 -11.754300 -0.000006 -0.000006 -0.018672 -0.159821 -23.100400
0.000000 0.000000 0.000000 0.000000 0.000000 -0.000000 -1.487220 90.261900 28.862400 -93.555300 -12.055900 170.973000 15.735700 0.000005 -0.000001 42.552300 80.850900 -40.628400 8.984550 -0.406207 -0.000000 4.949760 -13.501700 4.443350 16.377300 -0.000001 -0.000001 -1.590670 -2.201370 0.867849 6.456720 -0.000001 -0.000000 -4.114070 5.131370 1.631410 12.994200 -0.242716 4.980390 -88.789300 -5.094310 -76.609700 5.348090 -0.000007 -0.000001 -65.663900 33.141400 -17.842000 24.328600 0.000019 0.000005 5.325330 -1.873220 -109.325000 22.291600 -0.000001 0.000005 3.548170 5.436100 -4.149580 12.994500 -0.242716 -4.980390 89.409000 1.652180 -70.270700 -5.348130 -0.000001 -0.000004 -63.275000 21.719800 32.248500 -24.328900 0.000322 -0.000009 -6.741960 -2.916890 -66.703600 -22.291500 -0.000108 -0.000004 11.567200 5.642520 -14.319300 -2.192480 -6.469440 -0.000000 -170.374000 0.022257 9.799850 39.081100 -0.000007 -0.000012 0.675825 -0.195627 73.856300 40.985400 -0.000006 -0.000013 -6.734470 1.454070 -12.439200 11.754300 -0.000000 0.000003 0.000462 0.008178 -16.245400 -2.192510 6.469440 -0.000001 -170.267000 28.457400 140.424000 -39.081100 -0.002282 -0.040193 0.278826 -0.543515 26.881800 -40.985400 0.000008 0.000006 6.818120 6.603790 -74.189600 -11.754300 -0.000006 -0.000006 -0.030840 -0.221286 -25.640700
